<svg width="200" height="189" viewBox="0 0 200 189" fill="none" xmlns="http://www.w3.org/2000/svg">
<g id="Group">
<path id="Vector" d="M88.8601 21.4568C88.8614 20.1871 88.3112 18.9929 87.3093 18.0945C86.3088 17.1973 84.9792 16.7034 83.564 16.7034H83.56C80.6401 16.7034 78.2613 18.8325 78.2573 21.4521C78.256 22.7207 78.805 23.9137 79.8055 24.8121C80.806 25.7104 82.1369 26.2056 83.5535 26.2068C86.476 26.2068 88.8562 24.0764 88.8601 21.4568Z" fill="#FFB900"/>
<path id="Vector_2" d="M102.101 26.2126C102.103 26.2126 102.104 26.2126 102.105 26.2126C103.52 26.2126 104.85 25.7187 105.852 24.8227C106.855 23.9255 107.407 22.7324 107.408 21.4639C107.409 20.1953 106.86 19.0011 105.86 18.1027C104.859 17.2056 103.528 16.7104 102.113 16.7092C99.1906 16.7092 96.8091 18.8396 96.8052 21.4592C96.8039 22.7289 97.3541 23.9231 98.356 24.8215C99.3565 25.7187 100.687 26.2126 102.101 26.2126Z" fill="#FFB900"/>
<path id="Vector_3" d="M199.942 67.7863C199.716 66.8243 198.86 66.0804 197.779 65.9071L130.853 55.1788C144.952 51.1916 163.928 40.0943 174.049 9.83457C174.475 8.5566 173.665 7.21144 172.24 6.82828C170.819 6.44513 169.312 7.17135 168.883 8.44814C154.144 52.5166 120.979 52.8611 114.768 52.5195C115.803 52.0096 116.821 51.4635 117.8 50.8438C124.617 46.5313 129.149 40.0978 130.563 32.7318C131.978 25.3647 130.105 17.9468 125.288 11.8423C120.472 5.73777 113.289 1.6787 105.063 0.41252C96.8354 -0.856014 88.5535 0.823968 81.7369 5.13651C74.9202 9.44905 70.3876 15.8813 68.9738 23.2485C67.2958 31.9868 70.3764 40.4779 76.5089 46.6279C75.9678 46.9249 75.4292 47.2659 74.8895 47.5908C72.6743 47.9867 58.2652 50.1082 40.7765 42.3732C20.8808 33.5712 4.08796 25.9152 3.91946 25.8386C2.59246 25.2303 0.969264 25.7042 0.293919 26.8949C-0.381427 28.0821 0.146475 29.5369 1.47347 30.1417C1.64066 30.2184 18.4624 37.8873 38.3884 46.7022C50.018 51.8459 60.343 53.0095 67.3071 53.0095C67.3469 53.0095 67.3812 53.0079 67.4207 53.0078C52.9832 65.2631 39.552 87.0986 30.0157 114.581C29.7616 115.314 29.9117 116.111 30.4198 116.729C30.928 117.348 31.7337 117.712 32.5907 117.712H60.1498L25.2435 185.029C24.6156 186.239 25.2027 187.675 26.5521 188.236C26.9207 188.389 27.3064 188.461 27.6869 188.461C28.7032 188.461 29.6774 187.943 30.1342 187.064L66.0943 117.712H98.4997L91.4695 139.039C91.3378 139.438 91.3233 139.863 91.4287 140.268L103.433 186.592C103.723 187.708 104.832 188.462 106.057 188.461C106.259 188.461 106.464 188.441 106.669 188.398C108.12 188.097 109.023 186.8 108.686 185.501L96.842 139.796L104.121 117.712H130.642C131.37 117.712 132.067 117.449 132.573 116.982C133.082 116.515 133.357 115.884 133.337 115.234C133.247 112.185 133.069 109.218 132.841 106.303L183.405 114.118C183.557 114.142 183.711 114.154 183.863 114.154C184.733 114.154 185.561 113.777 186.07 113.125C186.669 112.359 186.722 111.353 186.203 110.54L180.917 102.263L189.841 100.41C190.75 100.221 191.486 99.6234 191.785 98.8312C192.084 98.0389 191.905 97.1654 191.31 96.5205L185.306 90.0104L193.48 86.6245C194.202 86.3251 194.739 85.7556 194.949 85.0671C195.158 84.3798 195.017 83.6441 194.563 83.0582L189.171 76.0872L198.807 70.288C199.72 69.7386 200.168 68.7495 199.942 67.7863ZM74.287 24.0667C76.45 12.8055 87.4056 4.83353 99.7553 4.83353C101.205 4.83353 102.674 4.94434 104.15 5.1707C110.956 6.21877 116.9 9.57756 120.885 14.6281C124.869 19.6799 126.42 25.8186 125.25 31.9137C124.08 38.0088 120.329 43.3316 114.689 46.9003C113.038 47.9456 111.273 48.7795 109.444 49.444C109.407 49.4561 109.372 49.4682 109.336 49.4819C104.948 51.0554 100.158 51.5431 95.3873 50.8096C81.3367 48.6451 71.8713 36.6483 74.287 24.0667ZM96.5945 74.5593L89.8647 79.5698L85.39 72.8345L93.6087 60.0749L96.5945 74.5593ZM36.2768 112.883C47.6905 81.4821 64.0574 58.3349 80.6269 50.0909C83.602 52.1647 87.033 53.7648 90.7974 54.7738L79.9307 71.6473C79.4436 72.4042 79.4502 73.3367 79.9491 74.0877L86.8447 84.4682C87.2476 85.0754 87.9282 85.4939 88.7049 85.613C88.8576 85.6366 89.0103 85.6483 89.1617 85.6483C89.787 85.6483 90.3979 85.4538 90.885 85.0907L101.256 77.3687C102.006 76.8099 102.361 75.9327 102.184 75.0733L98.2351 55.919C98.7689 55.9435 99.3036 55.9804 99.8356 55.9804C103.169 55.9804 106.453 55.4915 109.593 54.5564C118.784 63.9153 124.978 81.0879 127.158 102.973C127.158 102.974 127.158 102.974 127.157 102.975C127.084 103.353 127.137 103.716 127.251 104.061C127.518 106.93 127.729 109.864 127.858 112.883H36.2768ZM184.789 72.9066L138.563 65.8316C137.082 65.6112 135.703 66.4918 135.451 67.8052C135.201 69.1197 136.187 70.367 137.655 70.5922L183.828 77.6588L188.305 83.4473L180.64 86.6214L145.142 80.8583C143.686 80.6143 142.273 81.4914 142.008 82.8036C141.743 84.1157 142.715 85.3713 144.181 85.6094L179.549 91.3513L184.377 96.5877L176.71 98.18L152.907 94.3194C151.45 94.0765 150.039 94.9525 149.774 96.2647C149.508 97.5768 150.481 98.8335 151.946 99.0705L175.06 102.819L178.681 108.488L132.377 101.332C130.443 83.4613 125.845 68.541 119.084 58.1983L190.269 69.6089L184.789 72.9066Z" fill="#FFB900"/>
</g>
</svg>
