<svg width="70" height="69" viewBox="0 0 70 69" fill="none" xmlns="http://www.w3.org/2000/svg">
<g id="Group" style="mix-blend-mode:exclusion">
<g id="Group_2">
<path id="Vector" d="M27.5278 38.7823L21.86 30.6964C20.4614 28.7498 20.3878 25.9796 21.7127 23.9581C21.86 23.7335 23.4793 21.3377 26.7181 18.9419C14.5727 24.4822 1.3232 34.9639 0.219071 36.7608C-1.62114 39.7556 8.68404 40.9535 10.5243 51.1357C12.07 60.0451 23.7738 64.3127 25.5404 60.0451C27.2334 55.8524 29.2208 51.9592 31.3554 48.5153L31.9443 41.2529C30.1041 41.1032 28.5583 40.2048 27.5278 38.7823Z" fill="#FFB900"/>
<path id="Vector_2" d="M66.688 16.621H42.3236C29.8102 16.621 24.0687 25.0812 23.8479 25.4555C23.1118 26.5786 23.1118 28.076 23.9215 29.199L29.5893 37.2849C30.2518 38.1833 31.2087 38.6325 32.2392 38.6325C32.9017 38.6325 33.5642 38.4079 34.0794 38.0336C34.2267 37.8839 34.3739 37.7341 34.5211 37.5844V39.9053L32.5337 64.3127C32.3865 66.3342 33.8586 68.0562 35.8461 68.2808C37.8335 68.4305 39.5265 66.9331 39.7473 64.9117L41.6611 41.4776H43.0597L44.9735 64.8368C45.1207 66.7085 46.6665 68.2059 48.5803 68.2059C48.6539 68.2059 48.8011 68.2059 48.8747 68.2059C50.8622 68.0562 52.3343 66.2593 52.1871 64.2378L50.1997 39.8305L50.0525 23.1346H66.7616C68.5282 23.1346 70.0004 21.6372 70.0004 19.8404C69.9268 18.0435 68.4546 16.621 66.688 16.621ZM34.5947 33.0922L30.6935 27.5519C31.5768 26.7283 32.9017 25.755 34.6683 24.8566L34.5947 33.0922Z" fill="#FFB900"/>
<path id="Vector_3" d="M42.323 14.6744C46.307 14.6744 49.5366 11.3894 49.5366 7.33719C49.5366 3.28497 46.307 0 42.323 0C38.339 0 35.1094 3.28497 35.1094 7.33719C35.1094 11.3894 38.339 14.6744 42.323 14.6744Z" fill="#FFB900"/>
</g>
</g>
</svg>
