<svg width="210" height="261" viewBox="0 0 210 261" fill="none" xmlns="http://www.w3.org/2000/svg">
<g id="Group 13">
<path id="Vector" d="M93.3885 86.9542C45.859 138.833 14.0145 170.972 14.0145 170.972L60.7235 170.788L93.3885 86.9542Z" fill="black"/>
<path id="Vector_2" d="M187.823 102.421C184.066 100.158 178.332 100.739 175.028 103.735L156.54 120.463L154.903 97.5088C154.63 93.7844 150.357 91.1407 145.363 91.6041C144.511 91.6863 143.691 91.8631 142.927 92.0954L116.504 88.2641L120.185 77.3909C122.624 81.528 127.355 84.8021 133.676 86.1249C145.635 88.6554 158.764 83.2604 162.987 74.0978C167.211 64.9352 160.935 55.4593 148.964 52.9351C141.293 51.322 133.158 52.9541 127.187 56.7452L141.44 14.6274C142.703 10.9359 139.773 7.39364 134.927 6.71827C130.072 6.04175 125.123 8.48147 123.88 12.1706L97.049 91.4121C97.0075 91.5378 96.9698 91.6679 96.9442 91.7915L72.7 152.33L72.8215 152.365C72.5263 152.897 72.2642 153.434 72.0748 154.004L41.9488 245.303C40.1248 250.853 44.5522 256.143 51.8418 257.111C53.4063 257.331 54.9793 257.323 56.5013 257.129C62.0498 256.421 66.9074 253.206 68.3472 248.853L98.1824 158.408L108.123 160.775L90.5534 190.414C87.4191 195.681 90.4298 201.561 97.258 203.539C99.5305 204.196 101.938 204.335 104.248 204.04C108.909 203.446 113.197 201.083 115.285 197.568L140.771 154.591C143.902 149.322 140.888 143.445 134.064 141.471C132.996 141.157 131.892 140.982 130.783 140.892L138.567 124.014L139.622 138.708C139.815 141.45 142.235 143.711 145.707 144.429C146.975 144.687 148.301 144.727 149.574 144.565C151.817 144.279 153.949 143.378 155.499 141.974L188.668 111.937C191.97 108.951 191.585 104.692 187.823 102.421Z" fill="black"/>
</g>
</svg>
