<svg width="72" height="89" viewBox="0 0 72 89" fill="none" xmlns="http://www.w3.org/2000/svg">
<g id="Group">
<path id="Vector" d="M0.0646973 73.7523C0.186287 73.3004 0.487122 73.0007 0.739738 72.8109C0.999687 72.618 1.24287 72.533 1.40849 72.4954C1.4892 72.4707 1.55628 72.4687 1.59926 72.4618C1.64223 72.4568 1.66425 72.4539 1.66425 72.4539C1.66425 72.4539 1.64328 72.4608 1.6024 72.4756C1.56257 72.4914 1.50072 72.5063 1.42945 72.5468C1.28165 72.6131 1.0825 72.7495 0.885437 72.9582C0.693611 73.1678 0.502838 73.4665 0.466156 73.8284C0.427368 74.1894 0.546867 74.5909 0.806824 74.9736C0.940994 75.1654 1.07516 75.3286 1.29214 75.5313L1.44308 75.6796C1.47033 75.6915 1.54056 75.7488 1.58668 75.7825C1.69569 75.8566 1.78374 75.9466 1.91162 76.0129C2.15795 76.1513 2.40218 76.2987 2.68835 76.4154C2.86968 76.5014 3.06884 76.5775 3.2638 76.6557C3.33193 74.7807 3.47659 72.5438 3.75645 70.0054C3.0594 69.6118 2.41791 69.1668 1.8634 68.6526C1.58983 68.3915 1.30682 68.0958 1.13071 67.7853C0.956711 67.5252 0.773277 67.1771 0.659019 66.8666C0.414787 66.2426 0.408501 65.5682 0.628624 65.053C0.837219 64.5289 1.23973 64.2095 1.56782 64.0147C1.90533 63.8179 2.20827 63.7467 2.41162 63.7219C2.51225 63.7022 2.59191 63.7081 2.64432 63.7061C2.69673 63.7051 2.72293 63.7051 2.72293 63.7051C2.72293 63.7051 2.69673 63.7111 2.64642 63.7229C2.5961 63.7368 2.52063 63.7467 2.42944 63.7862C2.24286 63.8465 1.98605 63.985 1.72085 64.2075C1.46194 64.433 1.19151 64.7652 1.09612 65.1934C0.998634 65.6186 1.08354 66.1141 1.3393 66.6036C1.47243 66.8498 1.60974 67.0614 1.83929 67.3314C2.02378 67.5826 2.24495 67.7754 2.507 67.986C2.90951 68.2995 3.38225 68.5853 3.88644 68.8592C4.15478 66.6639 4.52583 64.2658 5.02792 61.7095C4.65582 61.4455 4.30466 61.1647 3.97972 60.8631C3.65897 60.5565 3.3267 60.2094 3.12125 59.8465C2.9179 59.5419 2.70197 59.1335 2.56885 58.7696C2.28269 58.0368 2.2743 57.2467 2.5332 56.6425C2.77849 56.0274 3.25018 55.6526 3.63487 55.4241C4.03004 55.1937 4.38538 55.1097 4.62437 55.081C4.74177 55.0583 4.83611 55.0652 4.8969 55.0622C4.9577 55.0612 4.98914 55.0602 4.98914 55.0602C4.98914 55.0602 4.95875 55.0672 4.899 55.081C4.8403 55.0968 4.7512 55.1087 4.64429 55.1552C4.42626 55.2254 4.12437 55.3876 3.81306 55.6496C3.50909 55.9146 3.19253 56.3043 3.08037 56.8056C2.96507 57.305 3.06569 57.8855 3.36652 58.4601C3.52271 58.7488 3.68414 58.997 3.95352 59.3135C4.16946 59.6072 4.4294 59.8336 4.73653 60.0818C4.90738 60.2153 5.09082 60.3429 5.28159 60.4685C6.09919 56.5673 7.22705 52.326 8.78258 47.87C7.93878 47.6524 7.05096 47.2618 6.16418 46.62C2.63908 44.0677 3.83717 39.3576 4.2009 38.1947C3.30888 37.3581 2.5657 36.209 2.6852 34.7355C2.96716 31.2764 5.34238 29.8039 5.34238 29.8039C4.99438 29.2146 4.69145 28.4778 4.47133 27.5512C3.24913 22.407 8.58971 19.5679 8.58971 19.5679V19.6095C8.75428 17.0215 9.88005 15.5639 11.2081 14.753C7.86121 11.3987 4.20404 7.49652 4.77845 7.00801C5.36125 6.51257 8.98279 10.655 12.0152 14.3426C12.5131 14.1349 13.0163 13.9975 13.4901 13.9095C9.65784 8.75637 5.00697 2.06552 6.26585 1.52658C7.552 0.975765 11.8045 8.21346 14.837 13.7661C15.5162 13.7453 15.9701 13.8047 15.9701 13.8047C16.0456 13.6573 16.1294 13.51 16.2196 13.3626C13.9617 9.19741 11.292 3.85641 12.3087 3.62204C13.272 3.39954 15.3276 8.26785 16.903 12.4509C17.7112 11.5658 18.8977 10.8281 20.643 10.6214C22.688 10.3791 24.4322 10.8301 25.8012 11.459C26.6062 10.5008 30.1061 6.73804 34.7916 7.55289C40.15 8.48442 41.5022 13.0383 41.5022 13.0383C42.9854 12.8306 44.6468 12.8702 46.3082 13.4506C46.8491 13.6395 47.3302 13.8857 47.7621 14.1705C49.5272 9.20038 52.5733 1.08751 53.5324 1.4267C54.502 1.76985 50.6174 9.77394 48.2222 14.5028C48.6195 14.8173 48.9685 15.1664 49.2715 15.5392C52.4905 9.53858 58.3814 -0.941697 59.7419 0.0679621C61.1214 1.09048 53.8458 10.926 49.7673 16.2245C49.827 16.3174 49.8868 16.4114 49.9423 16.5063C49.9423 16.5063 50.5083 16.4806 51.3909 16.5775C54.4496 12.4341 59.7535 5.55433 60.6046 6.47203C61.4275 7.35906 55.8489 13.1124 52.2075 16.6932C54.851 17.1481 59.1004 18.674 60.9736 23.7401C62.3142 27.3663 61.7419 30.1481 60.7734 32.0715C60.7734 32.0715 65.6549 37.4946 62.8415 44.0727C67.1307 46.3095 71.9262 48.9934 71.5353 49.6273C71.1474 50.2572 66.506 47.4606 62.4694 44.8588C62.2388 45.3009 61.9914 45.7103 61.7262 46.0841C66.898 49.8112 72.8728 54.4392 71.8937 55.2758C70.9284 56.1015 65.4064 51.338 60.8761 47.1283C60.5428 47.4824 60.1937 47.7948 59.8363 48.0757C63.0123 51.1502 66.2481 54.5668 65.4609 55.0227C64.679 55.4756 61.5952 52.0491 58.8782 48.7392C56.2147 50.3482 53.3259 50.3492 52.3196 50.2898C50.8134 53.0389 48.196 55.9849 43.7674 56.6444C40.3418 57.1547 37.7213 56.3072 35.7895 55.0691C35.7895 55.0691 33.4268 58.9505 27.4091 57.3545C25.8871 56.951 24.8054 56.2993 24.0371 55.5527C23.0895 56.7354 20.5864 59.9938 17.8883 64.5754C18.752 64.6337 19.5843 64.6298 20.3317 64.5032C20.5308 64.4705 20.6765 64.432 20.8673 64.3825L21.1608 64.2817L21.2289 64.2579C21.2363 64.254 21.2656 64.2411 21.2729 64.2381L21.3998 64.1808C21.5696 64.1046 21.7373 64.0295 21.9008 63.9563C22.0497 63.8653 22.1964 63.7763 22.34 63.6893C22.883 63.3116 23.2499 62.8428 23.3694 62.3424C23.4909 61.843 23.4029 61.3545 23.2761 60.9758C23.1429 60.5951 22.993 60.3014 22.8778 60.1095C22.7614 59.9167 22.6859 59.8208 22.6859 59.8208C22.6859 59.8208 22.7813 59.8979 22.9427 60.065C23.0989 60.2341 23.3337 60.4863 23.5486 60.867C23.7593 61.2428 23.9867 61.7639 23.9354 62.4166C23.8987 63.0683 23.5077 63.7833 22.8914 64.3103C22.7331 64.4349 22.5706 64.5625 22.405 64.692C22.231 64.8038 22.0476 64.9076 21.8631 65.0184L21.7226 65.1014C21.688 65.1192 21.7006 65.1192 21.6272 65.1529L21.557 65.1835L21.274 65.3081C21.0686 65.3843 20.8096 65.4753 20.5874 65.5296C19.6786 65.761 18.707 65.8491 17.7258 65.8144C17.5466 65.8085 17.3663 65.7986 17.186 65.7877C16.1399 67.635 15.0833 69.6622 14.0938 71.8388C14.6944 71.8635 15.272 71.8467 15.7992 71.7577C15.9691 71.73 16.0938 71.6974 16.2563 71.6548L16.5068 71.5688L16.5686 71.5471C16.5445 71.5569 16.5938 71.5362 16.6022 71.5312L16.7112 71.4828C16.8558 71.4175 16.9984 71.3542 17.1388 71.2909C17.2657 71.2138 17.3904 71.1376 17.5131 71.0635C17.9764 70.7411 18.2887 70.3416 18.3904 69.9154C18.4942 69.4902 18.4198 69.0728 18.3107 68.7505C18.1975 68.4261 18.0697 68.1759 17.9711 68.0118C17.8726 67.8476 17.8076 67.7655 17.8076 67.7655C17.8076 67.7655 17.8894 67.8318 18.0267 67.9732C18.1598 68.1176 18.36 68.3322 18.5434 68.6575C18.7227 68.9779 18.9166 69.4219 18.8726 69.9787C18.8422 70.5344 18.5078 71.1436 17.9826 71.5925C17.8474 71.6983 17.7091 71.8071 17.5686 71.9179C17.4198 72.0128 17.2646 72.1018 17.1063 72.1958L16.9869 72.266C16.9575 72.2818 16.968 72.2808 16.9051 72.3095L16.8453 72.3362L16.6043 72.442C16.4292 72.5073 16.2091 72.5844 16.0194 72.6309C15.2615 72.8237 14.4523 72.8979 13.6347 72.8741C12.8947 74.5731 12.2039 76.3521 11.5918 78.1914C11.7165 78.1865 11.8423 78.1825 11.9649 78.1776C12.118 78.1598 12.2689 78.142 12.4188 78.1242C12.7354 78.1054 12.9733 78.0233 13.2416 77.9748C13.3727 77.9501 13.5184 77.869 13.6525 77.8206L13.8559 77.7365L13.8968 77.7197L13.9177 77.7069L14.0026 77.6574C14.1158 77.5912 14.228 77.5259 14.337 77.4616C14.4345 77.3865 14.5299 77.3123 14.6242 77.2401C14.9754 76.9326 15.1944 76.5746 15.2364 76.2126C15.2793 75.8517 15.1766 75.5135 15.055 75.2564C14.9292 74.9983 14.7982 74.8025 14.7007 74.6749C14.6022 74.5483 14.5414 74.486 14.5414 74.486C14.5414 74.486 14.6158 74.5335 14.7437 74.6383C14.8684 74.7461 15.055 74.9063 15.2385 75.1585C15.4188 75.4077 15.6231 75.7578 15.642 76.2225C15.6714 76.6853 15.4554 77.2183 15.0655 77.6366C14.9638 77.7365 14.8601 77.8384 14.7552 77.9422C14.6389 78.0312 14.5204 78.1212 14.3999 78.2132L14.3077 78.2814L14.2846 78.2982L14.2731 78.3071L14.2668 78.3111C14.2511 78.32 14.294 78.2972 14.2301 78.3318L14.1819 78.3566L13.9869 78.4564C13.8496 78.5197 13.7385 78.5998 13.5739 78.6532C13.2521 78.7561 12.8978 78.8906 12.5729 78.9361C12.4052 78.9667 12.2364 78.9983 12.0656 79.031C11.8947 79.0458 11.7228 79.0616 11.5488 79.0765C11.466 79.0834 11.38 79.0814 11.2962 79.0873C10.2993 82.2577 9.55406 85.5933 9.23856 89C9.23856 89 9.14421 85.1255 10.5677 79.118C10.1872 79.121 9.80353 79.1101 9.41779 79.0824C8.69873 79.029 7.97547 78.9311 7.25641 78.8105C7.08031 78.7729 6.90525 78.7353 6.7302 78.6977C6.21554 81.7168 5.87697 84.9445 5.82561 88.3434C5.82561 88.3434 5.35182 84.367 5.84553 78.491C5.61282 78.4287 5.37907 78.3674 5.14742 78.3061C4.61075 78.1499 4.09503 77.961 3.59399 77.7583C3.45457 79.472 3.35919 81.2263 3.31831 83.0103C3.31831 83.0103 3.14431 81.0335 3.22712 77.6119C3.2093 77.604 3.18938 77.5981 3.17156 77.5902C2.5416 77.3251 1.95565 76.9998 1.43469 76.622C1.30157 76.536 1.18522 76.4094 1.06363 76.3076L0.874954 76.1345L0.741829 75.9714C0.572021 75.7716 0.385445 75.4996 0.261757 75.2534C0.00494385 74.754 -0.0673752 74.1973 0.0646973 73.7523ZM6.06565 62.3672C5.56356 64.4923 5.08453 66.7984 4.67049 69.2489C5.26691 69.5347 5.89374 69.7967 6.53838 70.0548C6.71972 70.126 6.90735 70.1883 7.09184 70.2556C7.5499 68.165 8.14213 65.9885 8.90942 63.7724C8.90627 63.7714 8.90313 63.7704 8.89998 63.7684C7.96813 63.3946 7.08659 62.9457 6.25117 62.4759C6.18723 62.4413 6.12749 62.4028 6.06565 62.3672ZM6.37067 61.1103C6.54678 61.2052 6.72497 61.2992 6.90736 61.3921C7.68093 61.7877 8.52367 62.1298 9.38005 62.473C10.3706 59.8307 11.6096 57.1527 13.1672 54.5243C10.727 53.0666 10.0079 51.1947 9.8465 49.8409C9.04149 51.968 7.65997 55.9305 6.37067 61.1103ZM22.8463 53.9705L22.9061 54.011C21.9574 52.1519 22.2415 50.3027 22.2415 50.3027C22.2415 50.3027 21.5832 54.5994 27.6942 56.3735C33.8053 58.1476 35.0159 54.5243 35.0159 54.5243C32.4615 52.5761 31.3608 50.0772 31.3608 50.0772C31.3608 50.0772 36.1553 57.3485 43.8638 55.4865C51.3962 53.6669 54.2053 45.11 54.2053 45.11C54.2053 45.11 53.7986 47.5595 52.3616 50.2127C53.3553 50.0911 55.9883 49.6352 58.3374 48.0678C56.177 45.4027 54.3762 42.9938 54.3762 42.9938C54.3762 42.9938 56.6718 45.0368 59.1843 47.4408C59.5354 47.1521 59.8719 46.8307 60.1895 46.4806C57.1424 43.6247 54.7022 41.1831 54.7022 41.1831C54.7022 41.1831 57.5585 43.0976 60.9505 45.5214C61.2042 45.1496 61.4337 44.7461 61.6381 44.314C58.787 42.4588 56.4328 40.839 56.4328 40.839C56.4328 40.839 58.9568 42.0622 61.9421 43.601C64.0385 38.0375 59.8897 33.4955 59.8897 33.4955C59.0113 34.6703 58.155 35.2656 58.155 35.2656C58.155 35.2656 62.6077 30.0334 59.4715 24.0901C56.6864 18.8134 51.8941 18.1014 50.8542 18.0084C50.8039 18.0569 50.7536 18.1054 50.7054 18.1518C51.3846 20.0663 51.3867 21.784 51.3867 21.784C50.9779 20.6636 50.4863 19.7093 49.9413 18.8856C49.4937 19.3128 49.2232 19.5659 49.2232 19.5659C49.2232 19.5659 49.4486 19.2475 49.8281 18.7195C49.5073 18.2537 49.1698 17.8324 48.8155 17.4537C47.8082 18.7481 47.153 19.5659 47.153 19.5659C47.153 19.5659 47.652 18.5909 48.4518 17.0779C48.1017 16.7407 47.7411 16.4391 47.37 16.1721C46.8197 17.2411 46.4633 17.9165 46.4633 17.9165C46.4633 17.9165 46.7138 17.1699 47.1185 16.004C42.3104 12.7762 36.1564 14.9369 36.1564 14.9369C36.1564 14.9369 37.7968 13.8838 40.1448 13.2993C39.7643 12.2343 38.4792 9.7591 34.5589 8.83548C30.1931 7.80703 26.7047 10.6738 25.8379 11.4719C27.9102 12.4331 29.1062 13.8017 29.1062 13.8017C22.8589 10.305 19.2353 11.6024 17.2615 13.4022C18.2499 16.0811 18.9742 18.2636 18.9742 18.2636C18.9742 18.2636 17.9061 16.4371 16.6126 14.0766C16.2248 14.5315 15.9292 14.9824 15.7101 15.3721C17.1053 17.9728 18.077 19.8943 18.077 19.8943C18.077 19.8943 16.8936 18.403 15.2741 16.2749C15.2185 16.4163 15.1923 16.4974 15.1923 16.4974C15.1923 16.4974 15.1986 16.3896 15.2227 16.2067C14.9093 15.7953 14.5823 15.3632 14.2427 14.9102C13.6693 14.9399 13.1567 15.0309 12.6955 15.1683C14.7123 17.6455 16.3181 19.7222 16.3181 19.7222C16.3181 19.7222 14.2867 17.8077 11.9251 15.463C8.3371 17.1629 8.70502 22.1381 8.70502 22.1381C8.63479 21.6347 8.59915 21.167 8.58238 20.721L8.58133 20.809C8.58133 20.809 4.85078 22.5188 5.22708 27.1053C5.63274 32.0527 9.45763 32.0665 9.45763 32.0665C9.45763 32.0665 7.42202 32.4028 5.85915 30.5318C5.85915 30.5318 3.48288 31.9617 3.34661 34.8384C3.2114 37.7161 6.87486 39.8768 6.87486 39.8768C6.87486 39.8768 6.04049 39.5603 5.11492 38.9245C5.11492 38.9245 4.07511 43.7572 6.87486 46.1741C9.6746 48.5909 14.2521 47.2381 14.2521 47.2381C14.2521 47.2381 12.8035 48.0628 10.7742 48.0994C10.7742 48.0994 9.27 51.3183 14.2521 54.0189C17.5948 55.8306 20.4983 55.4667 22.0476 55.0306C22.3107 54.6775 22.5706 54.3245 22.8463 53.9705ZM21.2143 56.1648C19.6881 56.3933 17.6105 56.3844 15.2521 55.5102C14.7081 56.3725 13.0865 59.0722 11.335 63.1622C11.6295 63.2562 11.9219 63.3531 12.2196 63.4381C13.1515 63.7229 14.098 63.9662 15.0362 64.1541C15.4093 64.2263 15.7793 64.2935 16.1472 64.3558C17.5372 61.7066 19.208 58.9575 21.2143 56.1648ZM15.4974 65.6186C15.2468 65.583 14.9974 65.5415 14.7468 65.495C13.749 65.3121 12.75 65.0728 11.7668 64.79C11.4377 64.6901 11.1138 64.5773 10.7888 64.4676C10.0352 66.3316 9.27629 68.438 8.58657 70.7549C8.68615 70.7846 8.78363 70.8192 8.88321 70.8479C9.67775 71.0912 10.4849 71.2978 11.2846 71.458C11.8077 71.5599 12.3255 71.6519 12.8349 71.7211C13.5666 69.7809 14.4429 67.7368 15.4974 65.6186ZM7.46814 77.8196C8.15052 77.9452 8.83709 78.05 9.51528 78.1113C9.94923 78.1449 10.379 78.1786 10.8004 78.1914C11.2228 76.5291 11.7626 74.7184 12.446 72.795C11.9796 72.7505 11.51 72.6882 11.0425 72.6002C10.1914 72.444 9.34023 72.2403 8.50167 71.999C8.41886 71.9742 8.33815 71.9436 8.25534 71.9179C7.74905 73.7345 7.29099 75.6707 6.91154 77.7088C7.09708 77.7464 7.28261 77.783 7.46814 77.8196ZM5.44825 77.3706C5.61282 77.4112 5.77843 77.4527 5.94405 77.4932C6.13063 75.6223 6.41888 73.5802 6.8455 71.4323C6.58136 71.3334 6.31512 71.2365 6.05517 71.1297C5.50905 70.9112 4.99124 70.6561 4.48495 70.392C4.16106 72.4479 3.88748 74.5968 3.68413 76.8178C4.24492 77.0265 4.84239 77.1946 5.44825 77.3706Z" fill="black"/>
<path id="Vector_2" d="M37.2832 19.5659C31.6428 14.3317 25.6262 17.9481 25.6262 17.9481C33.147 12.6941 37.2832 19.5659 37.2832 19.5659Z" fill="black"/>
<path id="Vector_3" d="M49.1289 33.1484C49.1289 33.1484 53.6414 36.2851 51.3846 41.1851C49.1289 46.086 42.7831 44.4712 42.7831 44.4712C42.7831 44.4712 54.7692 43.9797 49.1289 33.1484Z" fill="black"/>
</g>
</svg>
