<svg width="68" height="92" viewBox="0 0 68 92" fill="none" xmlns="http://www.w3.org/2000/svg">
<path d="M30.9939 29.9596C13.7129 48.0848 2.17796 59.2716 2.17796 59.2716L18.3226 60.0191L30.9939 29.9596Z" fill="#FFB900"/>
<path d="M63.0891 37.2577C61.8279 36.365 59.8366 36.4776 58.6456 37.5145L51.9805 43.3037L51.7937 34.8887C51.7605 33.5232 50.3276 32.4827 48.5941 32.565C48.2982 32.5801 48.0119 32.6304 47.7441 32.702L38.676 30.8414L40.1277 26.933C40.9022 28.487 42.483 29.7657 44.6458 30.3593C48.7367 31.4924 53.3629 29.7503 54.9735 26.4763C56.5841 23.2023 54.5717 19.6308 50.4765 18.4998C47.8519 17.7767 45.014 18.2311 42.8879 19.5121L48.5082 4.37267C49.0054 3.04596 48.0513 1.70068 46.388 1.36943C44.7213 1.03758 42.9708 1.84263 42.4803 3.16878L31.9009 31.6522C31.8845 31.6974 31.8693 31.7442 31.8585 31.789L22.4815 53.4844L22.5229 53.4993C22.4121 53.6883 22.3127 53.8798 22.2378 54.0851L10.3208 86.9161C9.59894 88.9121 11.0417 90.922 13.5448 91.4029C14.0819 91.5104 14.6256 91.5349 15.1548 91.4905C17.0839 91.3288 18.8156 90.2387 19.385 88.6737L31.1874 56.1494L34.5837 57.1873L28.023 67.7099C26.853 69.5795 27.7964 71.7803 30.1235 72.6222C30.898 72.9017 31.7276 72.9943 32.5307 72.927C34.1515 72.7911 35.6721 72.0027 36.4516 70.7549L45.9682 55.4974C47.137 53.627 46.1925 51.4272 43.8667 50.587C43.5029 50.4536 43.1242 50.3705 42.7424 50.3184L45.711 44.2877L45.833 49.6744C45.8546 50.6798 46.6536 51.5481 47.8416 51.871C48.2755 51.9871 48.7331 52.025 49.1758 51.9879C49.9556 51.9225 50.707 51.6307 51.266 51.1447L63.224 40.749C64.4142 39.7157 64.3516 38.1528 63.0891 37.2577Z" fill="#FFB900"/>
</svg>
