<svg width="55" height="91" viewBox="0 0 55 91" fill="none" xmlns="http://www.w3.org/2000/svg">
<path id="Vector" d="M53.0891 36.2577C51.8279 35.365 49.8366 35.4776 48.6456 36.5145L41.9805 42.3037L41.7937 33.8887C41.7605 32.5232 40.3276 31.4827 38.5941 31.565C38.2982 31.5801 38.0119 31.6304 37.7441 31.702L28.676 29.8414L30.1277 25.933C30.9022 27.487 32.483 28.7657 34.6458 29.3593C38.7367 30.4924 43.3629 28.7503 44.9735 25.4763C46.5841 22.2023 44.5717 18.6308 40.4765 17.4998C37.8519 16.7767 35.014 17.2311 32.8879 18.5121L38.5082 3.37267C39.0054 2.04596 38.0513 0.700682 36.388 0.369427C34.7213 0.0375795 32.9708 0.84263 32.4803 2.16878L21.9009 30.6522C21.8845 30.6974 21.8693 30.7442 21.8585 30.789L12.4815 52.4844L12.5229 52.4993C12.4121 52.6883 12.3127 52.8798 12.2378 53.0851L0.320813 85.9161C-0.401063 87.9121 1.04169 89.922 3.54483 90.4029C4.0819 90.5104 4.62561 90.5349 5.15477 90.4905C7.08391 90.3288 8.81563 89.2387 9.38499 87.6737L21.1874 55.1494L24.5837 56.1873L18.023 66.7099C16.853 68.5795 17.7964 70.7803 20.1235 71.6222C20.898 71.9017 21.7276 71.9943 22.5307 71.927C24.1515 71.7911 25.6721 71.0027 26.4516 69.7549L35.9682 54.4974C37.137 52.627 36.1925 50.4272 33.8667 49.587C33.5029 49.4536 33.1242 49.3705 32.7424 49.3184L35.711 43.2877L35.833 48.6744C35.8546 49.6798 36.6536 50.5481 37.8416 50.871C38.2755 50.9871 38.7331 51.025 39.1758 50.9879C39.9556 50.9225 40.707 50.6307 41.266 50.1447L53.224 39.749C54.4142 38.7157 54.3516 37.1528 53.0891 36.2577Z" fill="#FFB900"/>
</svg>
