<svg width="70" height="69" viewBox="0 0 70 69" fill="none" xmlns="http://www.w3.org/2000/svg">
<g id="vwndor icon">
<g id="Group">
<path id="Vector" d="M33.833 36.8931V43.2509H36.1663V36.8931L34.9997 35.7549L33.833 36.8931Z" fill="#FFB900"/>
<path id="Vector_2" d="M27.4082 22.7069C27.6641 23.0439 27.9368 23.3682 28.2419 23.6661C28.7273 24.1396 29.2382 24.5319 29.7606 24.8343C31.1876 25.7201 32.8026 26.1781 34.4637 26.1781H35.537C37.1981 26.1781 38.8131 25.7201 40.2065 24.8532C40.7625 24.5319 41.2735 24.1396 41.7588 23.6661C42.0667 23.3658 42.3398 23.0417 42.5953 22.7072C40.9379 22.439 39.667 21.0409 39.667 19.349C39.667 18.1602 40.2945 17.1139 41.2416 16.5023C37.2472 14.9313 32.7629 14.9291 28.7594 16.5025C29.7063 17.1142 30.3337 18.1603 30.3337 19.349C30.3337 21.0399 29.0642 22.4375 27.4082 22.7069ZM36.1904 17.9829C36.2018 17.9151 36.2251 17.8462 36.2599 17.7784C36.2832 17.7095 36.3186 17.6417 36.3653 17.5728C36.412 17.5161 36.4587 17.4594 36.5054 17.4027C36.5635 17.3571 36.6216 17.3005 36.6803 17.266C36.7504 17.2204 36.8204 17.186 36.8899 17.1637C36.96 17.1293 37.0301 17.1071 37.1001 17.0948C37.4852 17.0159 37.8937 17.1404 38.162 17.4027C38.2087 17.4594 38.2668 17.5161 38.3016 17.5728C38.3483 17.6417 38.3836 17.7095 38.4069 17.7784C38.4417 17.8462 38.465 17.9151 38.477 17.9829C38.4884 18.063 38.5004 18.1419 38.5004 18.2108C38.5004 18.5176 38.3836 18.8021 38.162 19.0189C38.0452 19.1211 37.917 19.2011 37.7769 19.2578C37.6368 19.3256 37.4852 19.349 37.3337 19.349C37.1816 19.349 37.0301 19.3256 36.8899 19.2578C36.7504 19.2011 36.6216 19.1211 36.5054 19.0189C36.2832 18.8021 36.167 18.5176 36.167 18.2108C36.167 18.1419 36.1784 18.063 36.1904 17.9829ZM31.8387 17.4027C31.955 17.3005 32.0837 17.2204 32.2233 17.1637C32.6551 16.9815 33.1683 17.0837 33.4953 17.4027C33.542 17.4594 33.5887 17.5161 33.6349 17.5728C33.6816 17.6417 33.7169 17.7095 33.7403 17.7784C33.775 17.8462 33.7984 17.9151 33.8103 17.9829C33.8217 18.063 33.8337 18.1419 33.8337 18.2108C33.8337 18.5176 33.7169 18.8021 33.4953 19.0189C33.3785 19.1211 33.2504 19.2011 33.1102 19.2578C32.9701 19.3256 32.8186 19.349 32.667 19.349C32.5149 19.349 32.3634 19.3256 32.2233 19.2578C32.0837 19.2011 31.955 19.1211 31.8387 19.0189C31.7334 18.9044 31.6519 18.7799 31.5932 18.6432C31.5351 18.5064 31.5004 18.3586 31.5004 18.2108C31.5004 17.9029 31.6285 17.6184 31.8387 17.4027ZM31.8422 20.8206C32.2979 20.376 33.0362 20.376 33.4919 20.8206C34.3236 21.632 35.6771 21.632 36.5088 20.8206C36.9646 20.376 37.7028 20.376 38.1586 20.8206C38.6143 21.2652 38.6143 21.9855 38.1586 22.4301C37.2881 23.2793 36.1442 23.7039 35.0004 23.7039C33.8565 23.7039 32.7126 23.2793 31.8422 22.4301C31.3864 21.9855 31.3864 21.2652 31.8422 20.8206Z" fill="#FFB900"/>
<path id="Vector_3" d="M39.666 37.0889L41.1745 35.6173L42.6829 34.1457L40.5518 32.0671L36.2422 33.7487L38.1575 35.6173L39.666 37.0889Z" fill="#FFB900"/>
<path id="Vector_4" d="M39.6673 27.6741C39.3353 27.8047 38.9969 27.9186 38.6537 28.017C38.5987 28.0327 38.542 28.0418 38.4868 28.0568C38.0936 28.163 37.6937 28.2441 37.2896 28.3074C37.1683 28.3262 37.0476 28.3438 36.9254 28.3588C36.4665 28.4153 36.0043 28.4544 35.5373 28.4544H34.464C33.996 28.4544 33.5328 28.4151 33.0729 28.3583C32.9535 28.3436 32.8353 28.3265 32.7165 28.308C32.2943 28.2423 31.8764 28.1581 31.4662 28.0452C31.4294 28.0351 31.3917 28.0293 31.355 28.0188C31.0092 27.9199 30.6683 27.8057 30.334 27.6741V29.9598L35.0007 31.7811L39.6673 29.9598V27.6741Z" fill="#FFB900"/>
<path id="Vector_5" d="M27.3164 34.1457L28.8249 35.6173L30.3333 37.0889L31.8418 35.6173L33.7571 33.7487L29.4475 32.0671L27.3164 34.1457Z" fill="#FFB900"/>
<path id="Vector_6" d="M23.3327 56.9092C23.3327 56.3034 23.0894 55.7321 22.6479 55.3008C22.2065 54.8696 21.6208 54.6328 20.9993 54.6328C19.7125 54.6328 18.666 55.6543 18.666 56.9092V59.1856H23.3327V56.9092Z" fill="#FFB900"/>
<path id="Vector_7" d="M26.8339 18.2109C26.362 18.2109 25.959 18.4884 25.7754 18.8828C25.8444 19.3318 25.9446 19.7735 26.0861 20.2042C26.2899 20.3739 26.5456 20.4873 26.8339 20.4873C27.477 20.4873 28.0006 19.9771 28.0006 19.3491C28.0006 18.7211 27.477 18.2109 26.8339 18.2109Z" fill="#FFB900"/>
<path id="Vector_8" d="M43.9188 20.2013C44.0578 19.7731 44.1566 19.332 44.2253 18.883C44.0418 18.4885 43.6386 18.2109 43.1667 18.2109C42.5235 18.2109 42 18.7211 42 19.3491C42 19.9771 42.5235 20.4873 43.1667 20.4873C43.4569 20.4873 43.7145 20.373 43.9188 20.2013Z" fill="#FFB900"/>
<path id="Vector_9" d="M45.5002 53.9301C46.3563 52.974 47.5999 52.3565 49.0005 52.3565C49.6502 52.3565 50.2768 52.4919 50.8558 52.7377L41.7778 38.2493L40.4921 39.503C40.2642 39.7254 39.9657 39.8365 39.6672 39.8365C39.3687 39.8365 39.0702 39.7254 38.8423 39.503L38.5005 39.1696V44.3892C38.5005 45.0184 37.9781 45.5274 37.3339 45.5274H32.6672C32.0229 45.5274 31.5005 45.0184 31.5005 44.3892V39.1696L31.1587 39.503C30.703 39.9477 29.9647 39.9477 29.509 39.503L28.2233 38.2493L19.1465 52.7356C19.7156 52.494 20.3413 52.3565 21.0005 52.3565C22.2452 52.3565 23.4165 52.83 24.2989 53.6914C24.3746 53.7653 24.4303 53.8522 24.5002 53.9301C25.3563 52.974 26.5999 52.3565 28.0005 52.3565C29.2452 52.3565 30.4165 52.83 31.2989 53.6914C31.3746 53.7653 31.4303 53.8522 31.5002 53.9301C32.3563 52.974 33.5999 52.3565 35.0005 52.3565C36.2452 52.3565 37.4165 52.83 38.2989 53.6914C38.3746 53.7653 38.4303 53.8522 38.5002 53.9301C39.3563 52.974 40.5999 52.3565 42.0005 52.3565C43.2452 52.3565 44.4165 52.83 45.2989 53.6914C45.3746 53.7653 45.4303 53.8522 45.5002 53.9301Z" fill="#FFB900"/>
<path id="Vector_10" d="M51.3327 56.9092C51.3327 56.3034 51.0894 55.7321 50.6479 55.3008C50.2065 54.8696 49.6208 54.6328 48.9993 54.6328C47.7125 54.6328 46.666 55.6543 46.666 56.9092V59.1856H51.3327V56.9092Z" fill="#FFB900"/>
<path id="Vector_11" d="M15.7083 55.3766C15.7066 55.3746 15.7038 55.3739 15.7021 55.372C15.6358 55.2963 15.556 55.2348 15.4795 55.1698C15.4125 55.1153 15.3466 55.0589 15.2755 55.012C15.2173 54.9737 15.1553 54.9413 15.0933 54.9086C15.0223 54.87 14.9503 54.8345 14.8766 54.8037C14.769 54.7611 14.6582 54.7253 14.5434 54.6989C14.5135 54.6917 14.4838 54.6844 14.4537 54.6785C14.3358 54.6562 14.214 54.6467 14.0912 54.6421C13.9824 54.6407 13.874 54.6335 13.7641 54.6506C13.6991 54.6617 13.6336 54.6673 13.5675 54.6673C13.4647 54.6908 13.3801 54.7136 13.3013 54.738C13.2707 54.7474 13.2433 54.7585 13.2147 54.7686C13.1732 54.7832 13.1317 54.7983 13.0917 54.8149C13.0694 54.827 13.0467 54.8394 13.0292 54.8474C13.0047 54.8577 12.9965 54.8618 12.9784 54.8697C12.7499 54.9782 12.5375 55.1193 12.3502 55.302C12.0249 55.6193 11.8092 56.014 11.7174 56.4422L11.7076 56.4964C11.6821 56.6315 11.666 56.7691 11.666 56.9092V59.1856H16.3327V56.9092C16.3327 56.3479 16.1196 55.8144 15.7323 55.4053C15.7236 55.3963 15.7166 55.3859 15.7083 55.3766Z" fill="#FFB900"/>
<path id="Vector_12" d="M39.666 56.9092V59.1856H44.3327V56.9092C44.3327 56.3034 44.0894 55.7321 43.6479 55.3008C43.2065 54.8696 42.6208 54.6328 41.9993 54.6328C40.7125 54.6328 39.666 55.6543 39.666 56.9092Z" fill="#FFB900"/>
<path id="Vector_13" d="M57.166 51.6506V52.5021C57.1986 52.5099 57.2346 52.5277 57.2677 52.5367C57.3292 52.5542 57.3985 52.568 57.4554 52.5865C57.5409 52.6088 57.6519 52.6477 57.7676 52.6988C57.8075 52.7132 57.8451 52.7288 57.8701 52.7399C57.8733 52.7413 57.876 52.7434 57.8792 52.7448C57.8854 52.7474 57.8913 52.7483 57.8975 52.751C58.4136 52.9733 58.8858 53.2901 59.2971 53.6903C59.3672 53.7592 59.4344 53.8292 59.4993 53.9003C59.5305 53.866 59.5708 53.8407 59.603 53.8072C59.7256 53.6794 59.8603 53.5662 59.9972 53.4529C60.0979 53.3695 60.1937 53.2828 60.3015 53.2078C60.4555 53.1007 60.6217 53.0134 60.7886 52.9247C60.8977 52.8668 61.0005 52.8013 61.1146 52.7519C61.3074 52.6683 61.5121 52.6108 61.7176 52.553C61.8201 52.5242 61.9162 52.4828 62.0214 52.4609C62.3373 52.3948 62.6635 52.3565 62.9993 52.3565C63.2259 52.3565 63.4417 52.3744 63.6522 52.4039C63.7195 52.4133 63.7846 52.4299 63.8506 52.4424C63.9513 52.4614 64.0541 52.4749 64.1523 52.501L60.1562 40.8057L57.166 43.7223V51.6506Z" fill="#FFB900"/>
<path id="Vector_14" d="M26.525 36.5929L25.8591 35.9438L15.166 51.9885V52.4904C15.545 52.586 15.9071 52.7319 16.2487 52.9199C16.2602 52.9261 16.2728 52.9303 16.2843 52.9366L25.2887 38.5661L26.525 36.5929Z" fill="#FFB900"/>
<path id="Vector_15" d="M25.666 56.9092V59.1856H30.3327V56.9092C30.3327 56.3034 30.0894 55.7321 29.6479 55.3008C29.2065 54.8696 28.6208 54.6328 27.9993 54.6328C26.7125 54.6328 25.666 55.6543 25.666 56.9092Z" fill="#FFB900"/>
<path id="Vector_16" d="M32.666 56.9092V59.1856H37.3327V56.9092C37.3327 56.3034 37.0894 55.7321 36.6479 55.3008C36.2065 54.8696 35.6208 54.6328 34.9993 54.6328C33.7125 54.6328 32.666 55.6543 32.666 56.9092Z" fill="#FFB900"/>
<path id="Vector_17" d="M60.666 56.9091V59.1855H65.3327V56.9091C65.3327 56.3033 65.0894 55.732 64.6479 55.3008C64.3694 55.0296 64.0407 54.8395 63.671 54.7372C62.1471 54.2448 60.666 55.4264 60.666 56.9091Z" fill="#FFB900"/>
<path id="Vector_18" d="M9.33268 56.9093C9.33268 56.7544 9.31616 56.6031 9.28576 56.4568C9.27443 56.4019 9.25151 56.3507 9.23605 56.297C9.21021 56.2074 9.18785 56.1164 9.15139 56.0315C9.11671 55.951 9.06836 55.8764 9.02421 55.8001C8.99459 55.7489 8.9713 55.6938 8.93784 55.6451C8.8536 55.5229 8.75704 55.4076 8.64795 55.301C8.50083 55.1572 8.33015 55.0382 8.14843 54.9403C8.13668 54.9338 8.12464 54.9278 8.11275 54.9214C7.74917 54.7334 7.34065 54.638 6.95969 54.6387C6.7445 54.6421 6.55003 54.6658 6.37614 54.723C6.13282 54.7916 5.91222 54.899 5.71184 55.0291C5.67852 55.0506 5.64918 55.0774 5.61721 55.1005C5.44773 55.2232 5.29357 55.3623 5.1654 55.5214C5.15244 55.5375 5.13762 55.5525 5.12516 55.569C4.99087 55.7455 4.88583 55.9412 4.80893 56.1485C4.79732 56.1802 4.78899 56.213 4.77881 56.2452C4.71102 56.4577 4.66602 56.6793 4.66602 56.9093V59.1857H9.33268V56.9093Z" fill="#FFB900"/>
<path id="Vector_19" d="M53.774 52.9091C53.8266 52.8815 53.882 52.8588 53.9358 52.8332C54.2224 52.6946 54.5203 52.5766 54.8336 52.4986V51.9885L44.1405 35.9438L43.4746 36.5929L44.7109 38.5661L53.7153 52.9366C53.7342 52.9262 53.755 52.9192 53.774 52.9091Z" fill="#FFB900"/>
<path id="Vector_20" d="M6.34319 52.4031C6.55169 52.3743 6.76972 52.3565 7.00008 52.3565C7.33091 52.3565 7.65491 52.3948 7.97128 52.4601C8.0682 52.4802 8.15728 52.5172 8.25191 52.5431C8.46532 52.6012 8.67667 52.6627 8.87883 52.7499C8.98699 52.7966 9.08511 52.8576 9.18886 52.9119C9.36069 53.0018 9.53087 53.0924 9.69102 53.2038C9.80424 53.2822 9.90514 53.3726 10.0106 53.4603C10.1054 53.5393 10.2093 53.6044 10.2984 53.6914C10.3347 53.7267 10.3599 53.7694 10.3948 53.8057C10.4275 53.8397 10.4685 53.8654 10.5001 53.9003C10.5148 53.8842 10.5311 53.8688 10.546 53.8528C10.5803 53.8139 10.6238 53.7671 10.671 53.7214C10.7712 53.6091 10.9222 53.4757 11.0937 53.3524C11.1504 53.3053 11.2028 53.2795 11.2579 53.2393C11.3225 53.193 11.3868 53.1472 11.4536 53.1045C11.488 53.0836 11.5242 53.0508 11.5585 53.0323L11.5591 53.0334C11.5648 53.03 11.571 53.0267 11.5767 53.0234C11.7066 52.9411 11.8439 52.8689 11.9926 52.8055C12.0222 52.7888 12.0518 52.7733 12.0752 52.7622C12.0825 52.759 12.0892 52.7573 12.0965 52.7542C12.0992 52.753 12.1015 52.7511 12.1042 52.7499C12.1164 52.7446 12.1286 52.7427 12.1407 52.7376C12.3503 52.6497 12.5506 52.584 12.7463 52.5317C12.7752 52.524 12.8045 52.5091 12.8334 52.5021V51.6506V43.7223L9.84326 40.8057L5.84766 52.4998C5.94628 52.4729 6.05672 52.4579 6.16289 52.4383C6.2237 52.4271 6.28017 52.4118 6.34319 52.4031Z" fill="#FFB900"/>
<path id="Vector_21" d="M23.3333 19.3491V17.5963V14.7964C22.0465 14.7964 21 15.8179 21 17.0728C21 18.3276 22.0465 19.3491 23.3333 19.3491Z" fill="#FFB900"/>
<path id="Vector_22" d="M15.1666 43.2509V47.8122L22.9884 36.0762L11.5605 39.2615L14.8248 42.4462C15.0436 42.6596 15.1666 42.9486 15.1666 43.2509Z" fill="#FFB900"/>
<path id="Vector_23" d="M65.3327 61.4619H59.4994H52.4994H45.4994H38.4994H31.4994H24.4993H17.4993H10.4993H4.66602V63.7383H9.33268H13.9993H55.9994H60.666H65.3327V61.4619Z" fill="#FFB900"/>
<path id="Vector_24" d="M54.8327 66.0146H15.166V68.291H54.8327V66.0146Z" fill="#FFB900"/>
<path id="Vector_25" d="M2.33333 64.8765V62.6001H1.16667C0.523519 62.6001 0 63.1103 0 63.7383V64.8765C0 66.7594 1.56999 68.291 3.5 68.291H4.66667C6.18766 68.291 7.48535 67.3396 7.96672 66.0147H3.5C2.85571 66.0147 2.33333 65.5056 2.33333 64.8765Z" fill="#FFB900"/>
<path id="Vector_26" d="M27.7887 7.85137C28.2348 7.72285 28.7039 7.62622 29.166 7.51951V3.41457C29.166 2.194 29.5703 1.06846 30.2435 0.140625C27.6302 0.703673 25.666 2.97469 25.666 5.69094V8.56863C26.1418 8.38176 26.6493 8.22636 27.152 8.06651C27.3675 7.99795 27.5689 7.91472 27.7887 7.85137Z" fill="#FFB900"/>
<path id="Vector_27" d="M32.7785 6.93616C33.518 6.87273 34.259 6.82911 35 6.82911C35.7401 6.82911 36.4803 6.87259 37.2188 6.93588C37.4063 6.95186 37.5923 6.97284 37.7794 6.99277C38.0196 7.01855 38.261 7.03355 38.5 7.06586V3.41455C38.5 2.50979 38.1343 1.64948 37.4706 0.992577C36.8098 0.356794 35.928 0 35 0C33.07 0 31.5 1.53166 31.5 3.41455V7.06586C31.7413 7.03321 31.9849 7.01799 32.2271 6.99208C32.4112 6.97242 32.5941 6.95193 32.7785 6.93616Z" fill="#FFB900"/>
<path id="Vector_28" d="M54.8335 47.8122V43.2509C54.8335 42.9486 54.9565 42.6596 55.1753 42.4462L58.4396 39.2615L47.0117 36.0762L54.8335 47.8122Z" fill="#FFB900"/>
<path id="Vector_29" d="M48.9993 17.0728C48.9993 15.8179 47.9529 14.7964 46.666 14.7964V17.5963V19.3491C47.9529 19.3491 48.9993 18.3276 48.9993 17.0728Z" fill="#FFB900"/>
<path id="Vector_30" d="M58.3327 56.9092C58.3327 56.3034 58.0894 55.7321 57.6479 55.3008C57.4412 55.0996 57.2065 54.9418 56.9507 54.8318C56.7957 54.764 56.6505 54.7173 56.5155 54.6928L56.5155 54.6917C56.4786 54.6851 56.442 54.677 56.4061 54.6673C56.3963 54.6669 56.3844 54.6644 56.3742 54.6637C56.3154 54.6635 56.2968 54.6612 56.2346 54.6506C56.1583 54.6384 56.0757 54.6328 55.9993 54.6328C55.3289 54.6328 54.7079 54.9018 54.2966 55.372C53.8791 55.8143 53.666 56.3479 53.666 56.9092V59.1856H58.3327V56.9092Z" fill="#FFB900"/>
<path id="Vector_31" d="M40.8331 7.51898C41.2946 7.62562 41.7626 7.72225 42.2086 7.85091C42.437 7.91676 42.6478 8.00339 42.8717 8.07488C43.3651 8.23236 43.8636 8.38436 44.3331 8.56853V5.69083C44.3331 2.97326 42.3672 0.701133 39.752 0.139404C40.4488 1.10343 40.8331 2.23168 40.8331 3.41446V7.51898Z" fill="#FFB900"/>
<path id="Vector_32" d="M68.8333 62.6001H67.6666V64.8765C67.6666 65.5056 67.1442 66.0147 66.4999 66.0147H62.0332C62.5146 67.3396 63.8123 68.291 65.3333 68.291H66.4999C68.4299 68.291 69.9999 66.7594 69.9999 64.8765V63.7383C69.9999 63.1103 69.4764 62.6001 68.8333 62.6001Z" fill="#FFB900"/>
<path id="Vector_33" d="M26.8327 14.7163C26.9848 14.7163 27.1386 14.6818 27.3038 14.6096C32.1995 12.5022 37.8021 12.5033 42.6921 14.6085C43.0618 14.7708 43.4628 14.7385 43.7989 14.5262C44.1384 14.3117 44.3327 13.9627 44.3327 13.567V11.0173L43.5653 10.7215C42.2809 10.2099 40.8987 9.81031 39.4448 9.52813L39.441 9.52778C38.7115 9.38773 37.974 9.28269 37.2324 9.21267C35.0087 9.00322 32.7461 9.10763 30.5577 9.52778C29.1039 9.80899 27.7196 10.2091 26.4453 10.7171L25.666 11.0174V13.567C25.666 14.2773 26.2716 14.7163 26.8327 14.7163Z" fill="#FFB900"/>
</g>
</g>
</svg>
